<mxfile host="app.diagrams.net" modified="2022-04-26T23:54:39.499Z" agent="5.0 (Windows NT 10.0; Win64; x64) AppleWebKit/537.36 (KHTML, like Gecko) Chrome/101.0.4951.41 Safari/537.36" etag="RxXGvjJi3YTkDAEyoE4z" version="17.4.6" type="github">
  <diagram id="0PgT3I4wRUyZUk8hygXD" name="Page-1">
    <mxGraphModel dx="1178" dy="659" grid="1" gridSize="10" guides="1" tooltips="1" connect="1" arrows="1" fold="1" page="1" pageScale="1" pageWidth="850" pageHeight="1100" math="0" shadow="0">
      <root>
        <mxCell id="0" />
        <mxCell id="1" parent="0" />
        <mxCell id="CLcv_tB2qltChllkQ69b-7" value="" style="edgeStyle=orthogonalEdgeStyle;rounded=0;orthogonalLoop=1;jettySize=auto;html=1;exitX=0;exitY=0.25;exitDx=0;exitDy=0;entryX=0.25;entryY=0;entryDx=0;entryDy=0;" edge="1" parent="1" source="CLcv_tB2qltChllkQ69b-1" target="CLcv_tB2qltChllkQ69b-3">
          <mxGeometry relative="1" as="geometry" />
        </mxCell>
        <mxCell id="CLcv_tB2qltChllkQ69b-15" style="edgeStyle=orthogonalEdgeStyle;rounded=0;orthogonalLoop=1;jettySize=auto;html=1;exitX=1;exitY=0.25;exitDx=0;exitDy=0;entryX=0.625;entryY=0.014;entryDx=0;entryDy=0;entryPerimeter=0;" edge="1" parent="1" target="CLcv_tB2qltChllkQ69b-14">
          <mxGeometry relative="1" as="geometry">
            <mxPoint x="562" y="57.5" as="sourcePoint" />
            <Array as="points">
              <mxPoint x="662" y="58" />
            </Array>
          </mxGeometry>
        </mxCell>
        <mxCell id="CLcv_tB2qltChllkQ69b-28" style="edgeStyle=orthogonalEdgeStyle;rounded=0;orthogonalLoop=1;jettySize=auto;html=1;exitX=0.5;exitY=1;exitDx=0;exitDy=0;" edge="1" parent="1" source="CLcv_tB2qltChllkQ69b-1">
          <mxGeometry relative="1" as="geometry">
            <mxPoint x="480.8571428571429" y="360" as="targetPoint" />
          </mxGeometry>
        </mxCell>
        <mxCell id="CLcv_tB2qltChllkQ69b-1" value="main" style="rounded=1;whiteSpace=wrap;html=1;" vertex="1" parent="1">
          <mxGeometry x="400" y="50" width="162" height="30" as="geometry" />
        </mxCell>
        <mxCell id="CLcv_tB2qltChllkQ69b-13" style="edgeStyle=orthogonalEdgeStyle;rounded=0;orthogonalLoop=1;jettySize=auto;html=1;exitX=0.655;exitY=0.043;exitDx=0;exitDy=0;entryX=0;entryY=0.75;entryDx=0;entryDy=0;exitPerimeter=0;" edge="1" parent="1" source="CLcv_tB2qltChllkQ69b-3" target="CLcv_tB2qltChllkQ69b-1">
          <mxGeometry relative="1" as="geometry">
            <Array as="points">
              <mxPoint x="359" y="72" />
            </Array>
          </mxGeometry>
        </mxCell>
        <mxCell id="CLcv_tB2qltChllkQ69b-3" value="first_day_of_month" style="rounded=1;whiteSpace=wrap;html=1;" vertex="1" parent="1">
          <mxGeometry x="280" y="180" width="120" height="30" as="geometry" />
        </mxCell>
        <mxCell id="CLcv_tB2qltChllkQ69b-9" value="month, year" style="text;html=1;resizable=0;autosize=1;align=center;verticalAlign=middle;points=[];fillColor=none;strokeColor=none;rounded=0;rotation=270;" vertex="1" parent="1">
          <mxGeometry x="260" y="120" width="80" height="20" as="geometry" />
        </mxCell>
        <mxCell id="CLcv_tB2qltChllkQ69b-10" value="first day" style="text;html=1;resizable=0;autosize=1;align=center;verticalAlign=middle;points=[];fillColor=none;strokeColor=none;rounded=0;rotation=270;" vertex="1" parent="1">
          <mxGeometry x="320" y="120" width="60" height="20" as="geometry" />
        </mxCell>
        <mxCell id="CLcv_tB2qltChllkQ69b-17" style="edgeStyle=orthogonalEdgeStyle;rounded=0;orthogonalLoop=1;jettySize=auto;html=1;exitX=0.25;exitY=0;exitDx=0;exitDy=0;entryX=1;entryY=0.75;entryDx=0;entryDy=0;" edge="1" parent="1" source="CLcv_tB2qltChllkQ69b-14">
          <mxGeometry relative="1" as="geometry">
            <mxPoint x="595" y="180" as="sourcePoint" />
            <mxPoint x="562" y="72.5" as="targetPoint" />
            <Array as="points">
              <mxPoint x="605" y="180" />
              <mxPoint x="605" y="72" />
            </Array>
          </mxGeometry>
        </mxCell>
        <mxCell id="CLcv_tB2qltChllkQ69b-22" style="edgeStyle=orthogonalEdgeStyle;rounded=0;orthogonalLoop=1;jettySize=auto;html=1;exitX=0.676;exitY=-0.005;exitDx=0;exitDy=0;exitPerimeter=0;" edge="1" parent="1">
          <mxGeometry relative="1" as="geometry">
            <mxPoint x="663.1200000000001" y="279.85" as="sourcePoint" />
            <mxPoint x="663.1142857142856" y="210" as="targetPoint" />
            <Array as="points">
              <mxPoint x="664" y="282" />
              <mxPoint x="663" y="282" />
            </Array>
          </mxGeometry>
        </mxCell>
        <mxCell id="CLcv_tB2qltChllkQ69b-25" style="edgeStyle=orthogonalEdgeStyle;rounded=0;orthogonalLoop=1;jettySize=auto;html=1;exitX=0.25;exitY=1;exitDx=0;exitDy=0;entryX=0.2;entryY=0;entryDx=0;entryDy=0;entryPerimeter=0;" edge="1" parent="1">
          <mxGeometry relative="1" as="geometry">
            <mxPoint x="603" y="210" as="sourcePoint" />
            <mxPoint x="606" y="280" as="targetPoint" />
            <Array as="points">
              <mxPoint x="606" y="210" />
            </Array>
          </mxGeometry>
        </mxCell>
        <mxCell id="CLcv_tB2qltChllkQ69b-14" value="number_of_days_in_month" style="rounded=1;whiteSpace=wrap;html=1;" vertex="1" parent="1">
          <mxGeometry x="562" y="180" width="160" height="30" as="geometry" />
        </mxCell>
        <mxCell id="CLcv_tB2qltChllkQ69b-16" value="month" style="text;html=1;resizable=0;autosize=1;align=center;verticalAlign=middle;points=[];fillColor=none;strokeColor=none;rounded=0;rotation=90;" vertex="1" parent="1">
          <mxGeometry x="649" y="120" width="50" height="20" as="geometry" />
        </mxCell>
        <mxCell id="CLcv_tB2qltChllkQ69b-18" value="number of days" style="text;html=1;resizable=0;autosize=1;align=center;verticalAlign=middle;points=[];fillColor=none;strokeColor=none;rounded=0;rotation=90;" vertex="1" parent="1">
          <mxGeometry x="566" y="120" width="100" height="20" as="geometry" />
        </mxCell>
        <mxCell id="CLcv_tB2qltChllkQ69b-19" value="is_leap_year" style="rounded=1;whiteSpace=wrap;html=1;" vertex="1" parent="1">
          <mxGeometry x="581" y="280" width="120" height="30" as="geometry" />
        </mxCell>
        <mxCell id="CLcv_tB2qltChllkQ69b-23" value="year" style="text;html=1;resizable=0;autosize=1;align=center;verticalAlign=middle;points=[];fillColor=none;strokeColor=none;rounded=0;rotation=90;" vertex="1" parent="1">
          <mxGeometry x="596" y="230" width="40" height="20" as="geometry" />
        </mxCell>
        <mxCell id="CLcv_tB2qltChllkQ69b-24" value="boolean" style="text;html=1;resizable=0;autosize=1;align=center;verticalAlign=middle;points=[];fillColor=none;strokeColor=none;rounded=0;rotation=90;" vertex="1" parent="1">
          <mxGeometry x="644" y="240" width="60" height="20" as="geometry" />
        </mxCell>
        <mxCell id="CLcv_tB2qltChllkQ69b-29" value="display_calendar" style="rounded=1;whiteSpace=wrap;html=1;" vertex="1" parent="1">
          <mxGeometry x="401" y="360" width="160" height="30" as="geometry" />
        </mxCell>
        <mxCell id="CLcv_tB2qltChllkQ69b-30" value="first day, number of days" style="text;html=1;resizable=0;autosize=1;align=center;verticalAlign=middle;points=[];fillColor=none;strokeColor=none;rounded=0;rotation=90;" vertex="1" parent="1">
          <mxGeometry x="415" y="220" width="150" height="20" as="geometry" />
        </mxCell>
      </root>
    </mxGraphModel>
  </diagram>
</mxfile>
